<?xml version="1.0" standalone="no"?>
<!DOCTYPE svg PUBLIC "-//W3C//DTD SVG 20010904//EN"
 "http://www.w3.org/TR/2001/REC-SVG-20010904/DTD/svg10.dtd">
<svg version="1.0" xmlns="http://www.w3.org/2000/svg"
 width="1097.000000pt" height="1096.000000pt" viewBox="0 0 1097.000000 1096.000000"
 preserveAspectRatio="xMidYMid meet">

<g transform="translate(0.000000,1096.000000) scale(0.100000,-0.100000)"
fill="#000000" stroke="none">
<path d="M5060 9283 c-573 -54 -1035 -237 -1455 -574 -132 -106 -316 -290
-415 -414 -155 -195 -320 -488 -405 -719 -157 -427 -201 -904 -125 -1353 94
-549 362 -1053 770 -1446 404 -390 898 -629 1475 -713 181 -27 543 -25 730 4
517 80 986 297 1362 631 482 428 782 992 869 1632 21 151 23 489 5 634 -13 99
-43 266 -62 336 l-9 37 -88 -58 c-274 -182 -612 -318 -1003 -404 l-25 -5 9
-78 c11 -102 2 -278 -22 -401 -114 -587 -567 -1033 -1166 -1149 -123 -23 -377
-23 -500 0 -304 59 -570 200 -780 413 -192 195 -327 449 -387 727 -31 146 -31
418 0 564 124 578 557 1010 1135 1135 84 18 134 22 282 22 190 0 302 -16 439
-64 33 -11 61 -18 63 -16 2 2 20 56 39 119 95 322 263 656 437 869 26 32 47
61 47 66 0 12 -211 87 -342 121 -140 37 -309 67 -453 81 -102 9 -343 11 -425
3z"/>
</g>
</svg>
